<svg id="Capa_1" data-name="Capa 1" xmlns="http://www.w3.org/2000/svg" viewBox="0 0 1028.57 1138.2"><defs><style>.cls-1{fill:#f4efef;}.cls-2{fill:#464647;}.cls-3{fill:#92603f;}.cls-4{fill:#cba278;}.cls-5{fill:#fff;}.cls-6{fill:#b87c57;}</style></defs><title>logo</title><path class="cls-1" d="M1308.47-118c-.41-.4-.81-.8-1.21-1.21C1308.3-119.46,1308.7-119.06,1308.47-118Z" transform="translate(-279.97 119.29)"/><path class="cls-2" d="M969.5,850.14c-12.77,9.93-27,17.16-43,19.27-22.64,3-41.56-4.74-56.61-22.07-8.11-9.35-13.11-20.27-16.85-31.83-4-12.49-6.95-25.24-7.56-38.44a102.8,102.8,0,0,1,4.11-32.85c5.51-19.64,15.09-37.1,26.84-53.7,17.2-24.3,40.07-41.1,66.9-53A139.77,139.77,0,0,1,993,625.4c4.14-.22,8.29,0,13.25,0-2.55-5.58-4.57-10.58-7.06-15.34-6.85-13.11-15.53-25-25.18-36.15a204.29,204.29,0,0,0-60.85-48c-10.42-5.43-21.49-9.21-32.75-12.37-13-3.65-26.1-6.45-39.82-6.18-12.26.25-23.94,2.8-35.5,6.39-13.39,4.14-25.21,11.63-37.62,17.86a288.58,288.58,0,0,0-52.14,33.82c-6.74,5.45-14,10.23-20.81,15.6-8.35,6.57-18.11,10.47-28.42,12.89a23,23,0,0,1-9.63.1c-11.27-2.15-22.72-3.32-33.88-6.13a15.8,15.8,0,0,0-9.42.31c3.71,1.76,6.55,3,9.31,4.44,6.65,3.37,13.34,6.66,19.87,10.26,4.74,2.61,5.85,6,4,9.91a6.89,6.89,0,0,1-4,3.42,102.3,102.3,0,0,1-10.1,4c-10.82,3.17-21.37,7.13-32.07,10.64a10.54,10.54,0,0,1-13.3-7.25c-1.4-5-3.13-9.95-3.3-15.31s-2.64-10.49-2.62-16c0-2.54-2.3-1.56-3.71-1-6.89,2.64-13.09,6.51-17.71,12.27a121.62,121.62,0,0,0-17,27.07c-5,11.39-4.63,22.65-1.16,34.22,7.36,24.51,22.16,43.56,42.44,58.76,11.4,8.55,23.38,15.72,37.57,18.66,12.79,2.65,24.43.81,34.58-7.9,2.6-2.23,5.25-4.43,8-6.45,4.21-3.08,7.79-3.23,10.39-.69,3.14,3.07,3.51,7.66.26,11.45-7.63,8.91-16.94,15.41-28.38,18.58-.58.16-1.2.15-1.79.29-3.67.89-3.86,1.28-2,4.9.91,1.79,2,3.46,3,5.22,6.44,11.41,12.77,22.86,16.75,35.45a39.18,39.18,0,0,1,.9,18c-.9,5.87-7.68,9.86-14.49,9.16-9.48-1-17.89-4.91-25.63-10.1a294,294,0,0,1-51.94-45.11c-22.79-24.7-42.39-51.79-60-80.33a600.64,600.64,0,0,1-29.87-55.3q-19.46-40.56-35.6-82.56c-2.49-6.52-5.9-9-12-10.33-13.22-2.94-25.13-8.64-34.74-18.48-8-8.2-13.61-18-17.89-28.49a105.84,105.84,0,0,1-7.81-44.87C374.34,428.36,383,405,400.31,385a15,15,0,0,1,3.11-2.85c4.72-3,10.15-.31,10.4,5.35a113.45,113.45,0,0,1-.22,12.09c-.37,5.69,2,10.09,5.78,14.06,6.16,6.4,14,10.11,21.73,14,10.95,5.53,22.18,10.51,31.9,18.3,14.34,11.49,19.42,26.58,18.69,44.34a82.35,82.35,0,0,1-6.79,29.87c-1.27,2.93-.67,4.77,1.14,7.06,8,10.12,15.7,20.48,23.81,30.51,9.41,11.64,17.42,24.2,25.19,36.94,1.45,2.36,3,4.65,4.36,6.73,2-.1,2.49-1.3,3.15-2.26,10.61-15.63,25.75-23.66,44-27.22,15.85-3.09,31.27-1,46.8,1.77,6.34,1.14,12.62,2.54,19,3.43,12.91,1.81,23.82-2.38,33.85-9.89,9-6.77,18.18-13.4,27-20.47,17.09-13.73,36.2-24.09,55.6-34,8.05-4.11,15.63-9,24.26-12.11,22-8,44.61-11.93,67.69-8.1,27.61,4.58,53.75,13.68,77.54,29.14s43.8,34.89,60.65,57.58c12.5,16.81,21.39,35.5,27.58,55.52,3.33,10.78,6.94,21.47,9,32.61a21,21,0,0,1,.68,2.93c.43,16.12,3.56,32.09,2.78,48.26-.5,10.3-2.75,20.32-5.2,30.3-5.11,20.77-11.05,41.28-19.56,60.95a328.9,328.9,0,0,1-26.52,49.51c-6.17,9.43-11.81,19.2-18.37,28.4-9,12.58-20,23.1-31.56,33.25a400.65,400.65,0,0,1-84.64,57.83c-22.55,11.39-45.88,20.84-70.33,27.21a416.81,416.81,0,0,1-71.42,11.9c-29.21,2.39-57.94-.23-86.61-5.41a332.33,332.33,0,0,1-34.66-8.07,382.11,382.11,0,0,1-114.13-55.48,431.53,431.53,0,0,1-93.33-90.72c-20.9-27.37-38.21-56.86-53-87.84A488.4,488.4,0,0,1,303,700.63c-4.48-14.86-8.33-29.87-11.82-45-2.53-11-3.71-22.23-5.64-33.33A346.11,346.11,0,0,1,281,581.53a708.92,708.92,0,0,1-.05-75.61c.67-12.79,2.13-25.64,3.9-38.43,1.68-12.17,3.93-24.23,6.21-36.25A432.54,432.54,0,0,1,301.87,388c4.55-15.25,9.68-30.31,15.59-45.06a493.4,493.4,0,0,1,29.72-62.12c20.15-35.16,43.87-67.68,72.43-96.48C461,142.5,508.69,110.1,564.05,89.51a377.3,377.3,0,0,1,65.84-17.7,353.78,353.78,0,0,1,66.78-5c22.64.32,45,3.5,67.14,8,12.07,2.48,23.87,5.83,35.62,9.42a22.48,22.48,0,0,1,6.62,2.89c2.47,1.75,4,4,3.68,7.16-.54,4.82-1.46,9.4-4.72,13.43-14.84,18.34-29.51,36.82-44.19,55.28-4.14,5.2-8.15,10.51-12.24,15.8.25,1.92,1.94,2.45,3.18,3.3a179,179,0,0,1,23.45,19.05c9.49,9.23,16.48,20.36,22.52,32a159.05,159.05,0,0,1,14.78,43.36c3.56,18.59,15.3,30.38,31.94,37.42,9,3.81,18.78,5.85,28.22,8.65a37,37,0,0,0,5.31,1.18c13.07,1.82,18.93,12.47,18.85,23.66a91.8,91.8,0,0,1-6.2,32.51,121.3,121.3,0,0,1-26.44,41.57,31,31,0,0,1-13,8.41c-6.7,2.12-13,5.41-19.68,7.71-10.75,3.71-22,5.16-33.3,5.5a438.63,438.63,0,0,1-65.82-2.72,16,16,0,0,1-4.12-.91,7.61,7.61,0,0,1,1.5-14.47,27.65,27.65,0,0,1,4.82-.06c17.55.17,35,3.32,52.54,2.7,12.86-.46,25.8-1.24,38.27-4.81a74.42,74.42,0,0,0,30.92-17.12,54.27,54.27,0,0,0,7.9-9.9c6.87-10.31,12.13-21.36,14.86-33.51.3-1.35.87-2.72-.12-4.32-2,.13-2.68,2.05-3.69,3.29-3.18,3.9-6,8.11-9.31,11.9-5.13,5.85-10.42,6-16.25.75-6.32-5.64-12.6-11.31-17.92-18-1.4-1.75-2.76-3.42-3.09-5.75-.59-4.19,1.09-7.06,5.13-8.36a30.67,30.67,0,0,1,8.36-1.21l26-.91c-6.33-3.46-13-5.56-19.76-7.52-24.81-7.21-43.15-21.76-50.27-47.48-2.57-9.3-4.63-18.76-7.8-27.9-9.17-26.46-25.35-47.18-49.19-62.29-9.44-6-18.84-11.6-29.53-14.75-8.49-2.51-16.94-5.22-25.74-6.5-2.19-.32-4.42-.51-6.57-1-8.12-1.88-11-8.87-6-15.65a119.24,119.24,0,0,1,17.7-19,113,113,0,0,1,46.44-24.94,34.79,34.79,0,0,1,7.13-1.23c6.38-.28,9.22,3,8.54,9.41-.3,2.76-1.85,4.82-3.32,7q-12,17.79-23.87,35.68c-1.09,1.63-2.46,3.18-2.6,5.24.33.37.52.79.83.91,8.82,3.48,8.84,3.49,14.45-4.05,14.22-19.09,29.67-37.21,44.33-55.94,2.72-3.48,5.48-6.93,8.39-10.62-2.37-1.79-5.16-2.2-7.78-2.92-13.22-3.63-26.68-6.19-40.14-8.8-24.3-4.7-48.85-5.66-73.39-4.2a287.8,287.8,0,0,0-47.22,6.32c-11.4,2.6-22.87,4.89-34,8.39a366.34,366.34,0,0,0-88.94,41.69C453,169.73,414.65,208.32,383.09,254a496.49,496.49,0,0,0-71,157.26,547.14,547.14,0,0,0-14.34,86.32c-1.67,19.94-2.93,39.86-2.07,59.82.73,17.1,1.77,34.22,4.2,51.2,1.26,8.77,2.18,17.6,3.69,26.32,1.55,8.92,3.52,17.78,5.52,26.61a533.45,533.45,0,0,0,14.63,51.74,479.19,479.19,0,0,0,33.48,76.24,445.17,445.17,0,0,0,69.38,95.69c31.9,33.39,68.27,60.8,109.71,81.36a342.58,342.58,0,0,0,71.28,26.27c23.53,5.72,47.44,9.55,71.81,9.25,11.5-.14,23,0,34.49-.43,14.93-.61,29.61-3.44,44.24-6.28,37.37-7.25,72.22-21.29,105.16-40.1,25.12-14.34,49-30.78,69.14-51.54,14.91-15.37,29-31.87,39.62-50.83a29.17,29.17,0,0,0,7.16-11.13Zm51-152.92c.73-6.66-.39-14.46-1.42-22.22-1.09-8.17-2.8-16.27-6.24-23.82-3.36-7.4-7.83-9.78-15.78-9.56a123.11,123.11,0,0,0-42.82,8.94c-19.34,7.72-36.77,18.32-51.19,33.37-14.21,14.82-24.59,32.25-32.83,51a96.35,96.35,0,0,0-8.47,45.23,99.16,99.16,0,0,0,2.59,15.41c3.25,14.83,8,29,17.81,41.1,8.93,11,20.26,16.89,34.36,17.21,12.2.27,23.15-4.37,34.07-9.11,5.22-2.27,8.35-6.87,12.59-10.22,13.7-10.81,23.55-24.69,31.75-39.82A204.2,204.2,0,0,0,1014,746C1017.9,730.33,1020.81,714.64,1020.48,697.22ZM647.56,818.72c3.72.3,5.64-1.25,5.62-4.44a20.71,20.71,0,0,0-1-4.7c-4.4-16.82-13.74-31.28-22.1-46.21a8.67,8.67,0,0,0-6.22-4.28c-5.71-1.22-11.55-2.31-16.92-4.47-31.83-12.8-56.35-34-72.44-64.51a114.16,114.16,0,0,1-11.41-34.25c-2-11.49.71-22.39,5.36-32.9,5.08-11.5,5.57-8.05-1.25-19.7-7.94-13.56-16-27.1-26.44-39-2.6-2.94-2.67-3-5.6-.25-6.95,6.59-14.61,12.08-23.74,15.2-3.1,1.06-3.56,2.57-2.25,5.42,3,6.59,5.8,13.29,8.73,19.93,20.36,46,43.64,90.33,74.78,130.19,11.06,14.16,22.3,28.1,35,40.87,13.82,13.94,28.61,26.65,45.5,36.76A58.77,58.77,0,0,0,647.56,818.72Zm-198.93-374c-1.2,3.44-.83,6.1-.68,8.66.22,4-1.66,6.48-4.83,8.35-3.43,2-6.88,3.47-10.71.87a1.54,1.54,0,0,0-2.18,0,2,2,0,0,0-.11,2.25,30.29,30.29,0,0,0,1.75,3.16c3.45,5.19,7,10.34,10.4,15.55a73.21,73.21,0,0,1,6,11.13c3.35,7.74.57,13.7-4.61,19s-13.42,5.37-19.06.37a37.83,37.83,0,0,1-9.09-11.93c-2.27-4.71-4.27-9.55-6.56-14.25-1.73-3.53-3.12-3.85-4.91-.78-2.23,3.81-5.55,5.77-9.4,7.09-2.39.82-2.66,2.08-1.67,4.1,3.53,7.25,7.45,14.18,12.94,20.24,9.07,10,20.71,15.09,33.49,17.89,5.36,1.18,10.92.94,15.58-2.7,4.9-3.84,9.66-7.84,14.48-11.77a20.88,20.88,0,0,0,7.28-11.53c1.24-5.06,2.87-10.07,3.59-15.21a51.08,51.08,0,0,0-.08-15.66C477.12,461.54,464.57,452,448.63,444.71ZM385.08,456c0,2.42-.09,3.44,0,4.44.78,7.56.06,15.32,2.61,22.67,1.62,4.64,4.65,5.15,8,1.45a13.3,13.3,0,0,0,2.75-5.31,13.24,13.24,0,0,1,2.4-4.84c2.6-3.15,5.06-3.49,8.34-1a16.56,16.56,0,0,1,5,6.72c2.69,6.06,5.41,12.12,8.29,18.09a33.08,33.08,0,0,0,7.4,10.21,5.29,5.29,0,0,0,6.09,1.22,9.28,9.28,0,0,0,5-12.41,64.32,64.32,0,0,0-7.21-12.54,168.27,168.27,0,0,1-10.27-15.63c-1.75-2.95-3.45-6-4.09-9.36-.95-5,1.82-7.82,6.8-7a41.7,41.7,0,0,1,8.15,2.09c4.9,1.92,6.85.36,6.09-4.87-1-6.9-3.77-12.7-10.78-15.54a33.86,33.86,0,0,1-4.84-2.46c-7.5-4.47-14.37-9.6-18.86-17.4-1.43-2.5-2-5.23-3.09-7.82-1-2.35-2.48-2.48-4-.46a25.82,25.82,0,0,0-1.48,2.63A90.05,90.05,0,0,0,385.08,456Zm89.4,75.56a24.59,24.59,0,0,1-5.6,5.62c-3.8,3-7.52,6-11.34,8.93-2,1.48-3.18,3.26-2.23,5.66,2.06,5.21,4.3,10.35,6.52,15.49.81,1.86,2.1,2.92,4.29,2.07a64.55,64.55,0,0,0,23.31-15.56c1.15-1.19,1.39-2.43.25-3.69C484.47,544.29,480.63,537.38,474.48,531.55ZM688,159.64a80.56,80.56,0,0,1,16.31,4.06c4.55,1.57,4.61,1.49,7.21-2.49q9.06-13.89,18.1-27.81a3.09,3.09,0,0,0,.59-3.45C713.67,135.56,700.77,146.19,688,159.64ZM629.26,609.21a27.5,27.5,0,0,0-2.46-1.7c-9-4.49-17.95-9-27-13.39-2.22-1.06-4.65-3.91-7-2.13-2.07,1.58.15,4.53.54,6.76,1,5.71,1.28,11.55,2.93,17.17.79,2.71,2,3.66,4.78,2.74,3.42-1.16,6.92-2.07,10.35-3.22C617.21,613.47,623,611.41,629.26,609.21ZM869.1,351.1c-8.05-1.58-15.29-.08-22.49.83-2.36.29-1.82,2.36-.52,3.6,3,2.87,6.23,5.58,9.39,8.33a2.22,2.22,0,0,0,3.23,0C862.61,360.2,865.65,355.9,869.1,351.1Z" transform="translate(-279.97 119.29)"/><path class="cls-2" d="M705.65,343.57c-2.24.12-4.38-1.42-6.57-2.88C683,330,667.6,318.3,652.57,306.16c-2.51-2-5.09-4-7.61-6a28.92,28.92,0,0,1-2.29-2c-2.68-2.66-3.88-7-2.46-8.63,1.23-1.44,5.2-1.24,8.42,1,4.94,3.46,9.71,7.17,14.4,11a528.35,528.35,0,0,0,42.77,31.47c2.21,1.45,4.4,2.86,4.54,5.94S709.3,343.55,705.65,343.57Z" transform="translate(-279.97 119.29)"/><path class="cls-2" d="M621,343.92c8-3.62,15.5-1.27,23,0,12.3,2,24.53,4.54,36.84,6.48,5.18.82,10.16,2.61,15.44,2.86a6.1,6.1,0,0,1,3.79,1.7c2.94,2.67,2.24,6.31-1.58,7.43-2.76.81-5.59.35-8.4-.12-13.29-2.19-26.48-5-39.79-7.15-7.48-1.23-15.2-1.75-22.38-4.64C624.45,349.07,623.34,348.2,621,343.92Z" transform="translate(-279.97 119.29)"/><path class="cls-2" d="M737.69,290.85A15.62,15.62,0,0,1,722.13,275c.18-8.51,7-15,15.77-15s16.19,7.15,16,15.47S746.36,290.89,737.69,290.85Z" transform="translate(-279.97 119.29)"/><path class="cls-2" d="M799.79,624c-8.45-.08-15.6-7-15.62-15.16a15.78,15.78,0,0,1,16-15.54c9,0,15.7,6.66,15.64,15.59S809.18,624,799.79,624Z" transform="translate(-279.97 119.29)"/><path class="cls-2" d="M642.68,409.19c-2.6-.23-5-.62-5.59-3.19-.51-2.17,1.07-3.79,2.74-5a15.32,15.32,0,0,1,3.75-1.88c16.12-5.65,32-11.85,47.81-18.36a19.67,19.67,0,0,1,4-1.27c2-.35,4.21-.35,5.25,1.86a5.08,5.08,0,0,1-1.47,6.52,17.89,17.89,0,0,1-4.24,2.24c-10.35,4.39-20.82,8.48-31.51,12-5.54,1.81-10.59,4.89-16.34,6.1C645.52,408.53,644,408.9,642.68,409.19Z" transform="translate(-279.97 119.29)"/><path class="cls-1" d="M969.5,850.14l9.71-8.39a29.17,29.17,0,0,1-7.16,11.13Z" transform="translate(-279.97 119.29)"/><path class="cls-3" d="M1020.48,697.22c.33,17.42-2.58,33.11-6.44,48.81a204.2,204.2,0,0,1-19.14,48.71c-8.2,15.13-18,29-31.75,39.82-4.24,3.35-7.37,8-12.59,10.22-10.92,4.74-21.87,9.38-34.07,9.11-14.1-.32-25.43-6.22-34.36-17.21-9.82-12.07-14.56-26.27-17.81-41.1a99.16,99.16,0,0,1-2.59-15.41,96.35,96.35,0,0,1,8.47-45.23c8.24-18.76,18.62-36.19,32.83-51,14.42-15,31.85-25.65,51.19-33.37A123.11,123.11,0,0,1,997,641.62c8-.22,12.42,2.16,15.78,9.56,3.44,7.55,5.15,15.65,6.24,23.82C1020.09,682.76,1021.21,690.56,1020.48,697.22Z" transform="translate(-279.97 119.29)"/><path class="cls-4" d="M647.56,818.72a58.77,58.77,0,0,1-14.44-6.29c-16.89-10.11-31.68-22.82-45.5-36.76-12.66-12.77-23.9-26.71-35-40.87-31.14-39.86-54.42-84.17-74.78-130.19-2.93-6.64-5.71-13.34-8.73-19.93-1.31-2.85-.85-4.36,2.25-5.42,9.13-3.12,16.79-8.61,23.74-15.2,2.93-2.77,3-2.69,5.6.25,10.48,11.85,18.5,25.39,26.44,39,6.82,11.65,6.33,8.2,1.25,19.7-4.65,10.51-7.32,21.41-5.36,32.9a114.16,114.16,0,0,0,11.41,34.25c16.09,30.54,40.61,51.71,72.44,64.51,5.37,2.16,11.21,3.25,16.92,4.47a8.67,8.67,0,0,1,6.22,4.28c8.36,14.93,17.7,29.39,22.1,46.21a20.71,20.71,0,0,1,1,4.7C653.2,817.47,651.28,819,647.56,818.72Z" transform="translate(-279.97 119.29)"/><path class="cls-3" d="M448.63,444.71c15.94,7.31,28.49,16.83,31.57,34.9a51.08,51.08,0,0,1,.08,15.66c-.72,5.14-2.35,10.15-3.59,15.21A20.88,20.88,0,0,1,469.41,522c-4.82,3.93-9.58,7.93-14.48,11.77-4.66,3.64-10.22,3.88-15.58,2.7-12.78-2.8-24.42-7.86-33.49-17.89-5.49-6.06-9.41-13-12.94-20.24-1-2-.72-3.28,1.67-4.1,3.85-1.32,7.17-3.28,9.4-7.09,1.79-3.07,3.18-2.75,4.91.78,2.29,4.7,4.29,9.54,6.56,14.25a37.83,37.83,0,0,0,9.09,11.93c5.64,5,13.83,5,19.06-.37s8-11.29,4.61-19a73.21,73.21,0,0,0-6-11.13c-3.43-5.21-6.95-10.36-10.4-15.55a30.29,30.29,0,0,1-1.75-3.16,2,2,0,0,1,.11-2.25,1.54,1.54,0,0,1,2.18,0c3.83,2.6,7.28,1.15,10.71-.87,3.17-1.87,5.05-4.38,4.83-8.35C447.8,450.81,447.43,448.15,448.63,444.71Z" transform="translate(-279.97 119.29)"/><path class="cls-4" d="M385.08,456a90.05,90.05,0,0,1,12.24-47.07,25.82,25.82,0,0,1,1.48-2.63c1.5-2,3-1.89,4,.46,1.07,2.59,1.66,5.32,3.09,7.82,4.49,7.8,11.36,12.93,18.86,17.4a33.86,33.86,0,0,0,4.84,2.46c7,2.84,9.78,8.64,10.78,15.54.76,5.23-1.19,6.79-6.09,4.87a41.7,41.7,0,0,0-8.15-2.09c-5-.86-7.75,2-6.8,7,.64,3.4,2.34,6.41,4.09,9.36a168.27,168.27,0,0,0,10.27,15.63,64.32,64.32,0,0,1,7.21,12.54,9.28,9.28,0,0,1-5,12.41,5.29,5.29,0,0,1-6.09-1.22,33.08,33.08,0,0,1-7.4-10.21c-2.88-6-5.6-12-8.29-18.09a16.56,16.56,0,0,0-5-6.72c-3.28-2.5-5.74-2.16-8.34,1a13.24,13.24,0,0,0-2.4,4.84,13.3,13.3,0,0,1-2.75,5.31c-3.3,3.7-6.33,3.19-8-1.45-2.55-7.35-1.83-15.11-2.61-22.67C385,459.43,385.08,458.41,385.08,456Z" transform="translate(-279.97 119.29)"/><path class="cls-5" d="M474.48,531.55c6.15,5.83,10,12.74,15.2,18.52,1.14,1.26.9,2.5-.25,3.69a64.55,64.55,0,0,1-23.31,15.56c-2.19.85-3.48-.21-4.29-2.07-2.22-5.14-4.46-10.28-6.52-15.49-.95-2.4.28-4.18,2.23-5.66,3.82-2.92,7.54-6,11.34-8.93A24.59,24.59,0,0,0,474.48,531.55Z" transform="translate(-279.97 119.29)"/><path class="cls-6" d="M688,159.64c12.76-13.45,25.66-24.08,42.21-29.69a3.09,3.09,0,0,1-.59,3.45q-9.06,13.9-18.1,27.81c-2.6,4-2.66,4.06-7.21,2.49A80.56,80.56,0,0,0,688,159.64Z" transform="translate(-279.97 119.29)"/><path class="cls-6" d="M629.26,609.21c-6.28,2.2-12,4.26-17.86,6.23-3.43,1.15-6.93,2.06-10.35,3.22-2.74.92-4,0-4.78-2.74-1.65-5.62-1.91-11.46-2.93-17.17-.39-2.23-2.61-5.18-.54-6.76,2.33-1.78,4.76,1.07,7,2.13,9.07,4.34,18,8.9,27,13.39A27.5,27.5,0,0,1,629.26,609.21Z" transform="translate(-279.97 119.29)"/><path class="cls-6" d="M869.1,351.1c-3.45,4.8-6.49,9.1-10.39,12.73a2.22,2.22,0,0,1-3.23,0c-3.16-2.75-6.35-5.46-9.39-8.33-1.3-1.24-1.84-3.31.52-3.6C853.81,351,861.05,349.52,869.1,351.1Z" transform="translate(-279.97 119.29)"/></svg>